<?xml version="1.0" encoding="utf-8"?>
<!-- Generator: Adobe Illustrator 22.1.0, SVG Export Plug-In . SVG Version: 6.00 Build 0)  -->
<svg version="1.1" id="Layer_1" xmlns="http://www.w3.org/2000/svg" xmlns:xlink="http://www.w3.org/1999/xlink" x="0px" y="0px"
	 viewBox="0 0 126 15" style="enable-background:new 0 0 126 15;" xml:space="preserve">
<style type="text/css">
	.st0{clip-path:url(#SVGID_2_);fill:#FFFFFF;}
</style>
<image style="display:none;overflow:visible;enable-background:new    ;" width="126" height="15" id="Objeto_Inteligente_de_Vetor" xlink:href="AF930C08.png" >
</image>
<g>
	<defs>
		<rect id="SVGID_1_" x="1.7" y="0.5" width="122.8" height="14.4"/>
	</defs>
	<clipPath id="SVGID_2_">
		<use xlink:href="#SVGID_1_"  style="overflow:visible;"/>
	</clipPath>
	<path class="st0" d="M97.7,3.2H91c-0.2,0-0.4,0.2-0.4,0.4v0.9c0,0.2-0.2,0.4-0.4,0.4h-0.4h-2.2C87.2,5,87,5.2,87,5.4v9
		c0,0.2,0.2,0.4,0.4,0.4h2.7c0.2,0,0.4-0.2,0.4-0.4v-9C90.6,5.2,90.8,5,91,5h5.4c0.2,0,0.4,0.2,0.4,0.4v9c0,0.2,0.2,0.4,0.4,0.4h2.7
		c0.2,0,0.4-0.2,0.4-0.4V5.9C100.4,4.4,99.2,3.2,97.7,3.2"/>
	<path class="st0" d="M75.3,3.2h-6.7c-0.2,0-0.4,0.2-0.4,0.4v0.9c0,0.2-0.2,0.4-0.4,0.4h-0.4H65c-0.2,0-0.4,0.2-0.4,0.4v9
		c0,0.2,0.2,0.4,0.4,0.4h2.7c0.2,0,0.4-0.2,0.4-0.4v-9c0-0.2,0.2-0.4,0.4-0.4h5.4c0.2,0,0.4,0.2,0.4,0.4v9c0,0.2,0.2,0.4,0.4,0.4
		h2.7c0.2,0,0.4-0.2,0.4-0.4V5.9C78,4.4,76.8,3.2,75.3,3.2"/>
	<path class="st0" d="M83.8,3.2h-2.7c-0.2,0-0.4,0.2-0.4,0.4v10.8c0,0.2,0.2,0.4,0.4,0.4h2.7c0.2,0,0.4-0.2,0.4-0.4V3.6
		C84.3,3.4,84.1,3.2,83.8,3.2"/>
	<path class="st0" d="M46.1,0.5h-2.7c-0.2,0-0.4,0.2-0.4,0.4v2.2h-6.3h-0.9c-1.5,0-2.7,1.2-2.7,2.7v6.7c0,0.2,0.2,0.4,0.4,0.4h2.2
		h0.4c0.2,0,0.4,0.2,0.4,0.4v0.9c0,0.2,0.2,0.4,0.4,0.4h6.7c1.5,0,2.7-1.2,2.7-2.7V5V3.2V0.9C46.6,0.7,46.4,0.5,46.1,0.5 M43,12.6
		c0,0.2-0.2,0.4-0.4,0.4h-5.4c-0.2,0-0.4-0.2-0.4-0.4l0-7.2c0-0.2,0.2-0.4,0.4-0.4h5.4C42.8,5,43,5.2,43,5.4V12.6z"/>
	<path class="st0" d="M30,5h-2.2h-0.4c-0.2,0-0.4-0.2-0.4-0.4V3.6c0-0.2-0.2-0.4-0.4-0.4h-6.7c-1.5,0-2.7,1.2-2.7,2.7v6.3
		c0,1.5,1.2,2.7,2.7,2.7l7.2,0h0.9c1.5,0,2.7-1.2,2.7-2.7V5.4C30.4,5.2,30.2,5,30,5 M26.4,13.1H21c-0.2,0-0.4-0.2-0.4-0.4V5.4
		C20.5,5.2,20.7,5,21,5h5.4c0.2,0,0.4,0.2,0.4,0.4v7.2C26.8,12.9,26.6,13.1,26.4,13.1"/>
	<path class="st0" d="M13.1,9.4l-7.5-2C5.4,7.3,5.3,7.1,5.3,6.9v-1V5.4C5.3,5.2,5.5,5,5.7,5h0.4h7.6c0.2,0,0.4-0.2,0.4-0.4V3.6
		c0-0.2-0.2-0.4-0.4-0.4H5.7c-0.2,0-0.4,0.2-0.4,0.4v0.4v0.4C5.3,4.8,5.1,5,4.8,5H4.4H2.1C1.9,5,1.7,5.2,1.7,5.4v0.7
		c0,1.2,0.8,2.3,2,2.6l7.5,2c0.2,0.1,0.3,0.2,0.3,0.4v1.5c0,0.2-0.2,0.4-0.4,0.4H3c-0.2,0-0.4,0.2-0.4,0.4v0.9
		c0,0.2,0.2,0.4,0.4,0.4h9.4c1.5,0,2.7-1.2,2.7-2.7V12C15.1,10.7,14.3,9.7,13.1,9.4"/>
	<path class="st0" d="M59.1,3.2l-8.5,0c-0.2,0-0.4,0.2-0.4,0.4v0.9c0,0.2,0.2,0.4,0.4,0.4h7.2c0.2,0,0.4,0.2,0.4,0.4v1.8L50,9.5
		c-1,0.3-1.7,1.2-1.7,2.2v1c0,1.2,1,2.2,2.2,2.2h7.2c0.2,0,0.4-0.2,0.4-0.4v-0.9c0-0.3,0.2-0.5,0.5-0.5h2.7c0.2,0,0.4-0.2,0.4-0.4
		V5.9C61.8,4.4,60.6,3.2,59.1,3.2 M58.2,12.6c0,0.3-0.2,0.5-0.5,0.5h-5.4c-0.2,0-0.4-0.2-0.4-0.4v-1.8l6.3-1.7V12.6z"/>
	<path class="st0" d="M113,4.5V3.6c0-0.2-0.2-0.4-0.4-0.4h-6.7c-1.5,0-2.7,1.2-2.7,2.7v6.3c0,1.5,1.2,2.7,2.7,2.7l9.4,0
		c0.2,0,0.4-0.2,0.4-0.4v-0.9c0-0.2-0.2-0.4-0.4-0.4h-8.1c-0.2,0-0.4-0.2-0.4-0.4v-1.8l8.2-2.2c1-0.3,1.7-1.2,1.7-2.2v-1
		c0-0.2-0.2-0.4-0.4-0.4h-2.7C113.2,5,113,4.8,113,4.5 M113,7.2L113,7.2l-6.3,1.7V5.9c0-0.5,0.4-0.9,0.9-0.9h4.9
		c0.2,0,0.4,0.2,0.4,0.4V7.2z"/>
	<polygon class="st0" points="119.2,7.5 118.2,10.5 118.9,10.5 119.6,8.2 119.9,8.2 120.7,10.5 121.3,10.5 120.2,7.5 	"/>
	<path class="st0" d="M123.8,9.5c-0.1,0.1-0.1,0.2-0.3,0.3c-0.1,0.1-0.3,0.1-0.5,0.1c-0.3,0-0.5-0.1-0.7-0.3
		C122.1,9.5,122,9.3,122,9c0-0.3,0.1-0.5,0.3-0.7c0.2-0.2,0.4-0.3,0.7-0.3c0.2,0,0.3,0,0.5,0.1c0.1,0.1,0.2,0.2,0.3,0.3l0,0l0.5-0.3
		l0,0c-0.1-0.2-0.3-0.4-0.5-0.5c-0.2-0.1-0.5-0.2-0.8-0.2c-0.4,0-0.8,0.2-1.1,0.5c-0.3,0.3-0.4,0.7-0.4,1.1c0,0.4,0.2,0.8,0.5,1.1
		c0.3,0.3,0.7,0.4,1.1,0.4c0.4,0,0.8-0.1,1.1-0.4c0.3-0.3,0.4-0.6,0.4-1V8.9H123v0.6L123.8,9.5L123.8,9.5z"/>
</g>
</svg>
